<?xml version="1.0" encoding="utf-8"?>
<!-- Generator: Adobe Illustrator 17.0.0, SVG Export Plug-In . SVG Version: 6.00 Build 0)  -->
<!DOCTYPE svg PUBLIC "-//W3C//DTD SVG 1.1//EN" "http://www.w3.org/Graphics/SVG/1.1/DTD/svg11.dtd">
<svg version="1.1" id="Layer_1" xmlns="http://www.w3.org/2000/svg" xmlns:xlink="http://www.w3.org/1999/xlink" x="0px" y="0px"
	 width="24px" height="24px" viewBox="0 0 24 24" enable-background="new 0 0 24 24" xml:space="preserve">
<path fill="#FFFFFF" d="M22,7h-7V5h7V7z M23.726,17c-0.442,1.297-2.029,3-5.101,3c-3.074,0-5.564-1.729-5.564-5.675
	c0-3.91,2.325-5.92,5.466-5.92c3.082,0,4.964,1.782,5.375,4.426c0.078,0.506,0.109,1.188,0.095,2.14H15.97
	c0.13,3.211,3.483,3.312,4.588,2.029C20.558,17,23.726,17,23.726,17z M16.04,13h4.965c-0.105-1.547-1.136-2.219-2.477-2.219
	C17.062,10.781,16.251,11.549,16.04,13z M6.466,19.988H0V5.021h6.953c5.476,0.081,5.58,5.444,2.72,6.906
	C13.134,13.187,13.25,19.988,6.466,19.988z M3,11h3.584c2.508,0,2.906-3-0.312-3H3C3,8,3,11,3,11z M6.391,14H3v3.016h3.341
	C9.396,17.016,9.209,14,6.391,14z"/>
</svg>
