<?xml version="1.0" encoding="utf-8"?>
<!-- Generator: Adobe Illustrator 17.0.0, SVG Export Plug-In . SVG Version: 6.00 Build 0)  -->
<!DOCTYPE svg PUBLIC "-//W3C//DTD SVG 1.1//EN" "http://www.w3.org/Graphics/SVG/1.1/DTD/svg11.dtd">
<svg version="1.1" id="Layer_1" xmlns="http://www.w3.org/2000/svg" xmlns:xlink="http://www.w3.org/1999/xlink" x="0px" y="0px"
	 width="24px" height="24px" viewBox="0 0 24 24" enable-background="new 0 0 24 24" xml:space="preserve">
<path fill="#FFFFFF" d="M24,4.557c-0.883,0.392-1.832,0.656-2.828,0.775c1.017-0.609,1.798-1.574,2.165-2.724
	c-0.951,0.564-2.005,0.974-3.127,1.195c-0.897-0.957-2.178-1.555-3.594-1.555c-3.179,0-5.515,2.966-4.797,6.045
	C7.728,8.088,4.1,6.128,1.671,3.149c-1.29,2.213-0.669,5.108,1.523,6.574C2.388,9.697,1.628,9.476,0.965,9.107
	c-0.054,2.281,1.581,4.415,3.949,4.89c-0.693,0.188-1.452,0.232-2.224,0.084c0.626,1.956,2.444,3.379,4.6,3.419
	C5.22,19.123,2.612,19.848,0,19.54c2.179,1.397,4.768,2.212,7.548,2.212c9.142,0,14.307-7.721,13.995-14.646
	C22.505,6.411,23.34,5.544,24,4.557z"/>
</svg>
