<?xml version="1.0" encoding="utf-8"?>
<!-- Generator: Adobe Illustrator 17.0.0, SVG Export Plug-In . SVG Version: 6.00 Build 0)  -->
<!DOCTYPE svg PUBLIC "-//W3C//DTD SVG 1.1//EN" "http://www.w3.org/Graphics/SVG/1.1/DTD/svg11.dtd">
<svg version="1.1" id="Layer_1" xmlns="http://www.w3.org/2000/svg" xmlns:xlink="http://www.w3.org/1999/xlink" x="0px" y="0px"
	 width="24px" height="24px" viewBox="0 0 24 24" enable-background="new 0 0 24 24" xml:space="preserve">
<path fill="#FFFFFF" d="M12,0C5.372,0,0,5.373,0,12s5.372,12,12,12s12-5.373,12-12S18.628,0,12,0z M21.885,11.441
	c-2.575-0.422-4.943-0.445-7.103-0.073c-0.244-0.563-0.497-1.125-0.767-1.68c2.31-1,4.165-2.358,5.548-4.082
	C20.913,7.2,21.76,9.225,21.885,11.441z M18.043,4.159c-1.205,1.554-2.868,2.783-4.986,3.68c-1.016-1.861-2.178-3.676-3.488-5.438
	C10.348,2.204,11.16,2.087,12,2.087C14.275,2.087,16.368,2.866,18.043,4.159z M7.527,3.166c1.331,1.742,2.511,3.538,3.537,5.381
	C8.634,9.262,5.733,9.629,2.38,9.652C3.072,6.817,4.981,4.459,7.527,3.166z M2.087,12L2.1,11.744
	c3.849-0.005,7.169-0.448,9.95-1.322c0.233,0.475,0.456,0.952,0.67,1.432c-3.38,1.057-6.165,3.222-8.337,6.48
	C2.951,16.615,2.087,14.407,2.087,12z M5.916,19.81c1.969-3.088,4.482-5.098,7.598-6.027c0.928,2.42,1.609,4.91,2.043,7.46
	C12.208,22.534,8.604,21.909,5.916,19.81z M17.502,20.24c-0.438-2.353-1.08-4.653-1.92-6.897c1.876-0.265,3.94-0.196,6.199,0.196
	C21.344,16.325,19.753,18.731,17.502,20.24z"/>
</svg>
