<?xml version="1.0" encoding="utf-8"?>
<!-- Generator: Adobe Illustrator 17.0.0, SVG Export Plug-In . SVG Version: 6.00 Build 0)  -->
<!DOCTYPE svg PUBLIC "-//W3C//DTD SVG 1.1//EN" "http://www.w3.org/Graphics/SVG/1.1/DTD/svg11.dtd">
<svg version="1.1" id="Layer_1" xmlns="http://www.w3.org/2000/svg" xmlns:xlink="http://www.w3.org/1999/xlink" x="0px" y="0px"
	 width="292.651px" height="70px" viewBox="0 0 292.651 70" enable-background="new 0 0 292.651 70" xml:space="preserve">
<path fill="#FFFFFF" d="M45.63,10.352H28.938v45.396H16.692V10.352H0V0.056h45.63V10.352z M58.343,43.034h-0.156l-9.126-27.612
	H37.206l14.196,37.83c0.312,0.78,0.468,1.612,0.468,2.496c0,0.831-0.156,1.611-0.468,2.34c-0.312,0.728-0.793,1.339-1.443,1.833
	c-0.651,0.494-1.443,0.793-2.379,0.897c-1.092,0.051-2.184,0.025-3.276-0.078c-1.092-0.104-2.158-0.208-3.198-0.312v9.125
	c1.143,0.104,2.274,0.195,3.393,0.273c1.117,0.078,2.249,0.117,3.393,0.117c3.795,0,6.759-0.715,8.892-2.145
	c2.132-1.432,3.795-3.758,4.992-6.981l16.848-45.396H67.157L58.343,43.034z M120.354,27.785c0.728,2.626,1.092,5.37,1.092,8.229
	c0,2.704-0.364,5.304-1.092,7.8c-0.729,2.496-1.833,4.707-3.315,6.63c-1.482,1.925-3.328,3.471-5.538,4.641
	c-2.211,1.17-4.797,1.755-7.761,1.755c-2.445,0-4.732-0.52-6.864-1.56c-2.133-1.04-3.874-2.547-5.226-4.524h-0.156v19.188H80.417
	V15.422h10.53v5.148h0.156c1.352-2.184,3.067-3.77,5.147-4.758c2.079-0.987,4.368-1.482,6.864-1.482
	c3.171,0,5.901,0.598,8.189,1.794c2.288,1.197,4.186,2.782,5.694,4.758C118.507,22.859,119.624,25.16,120.354,27.785z
	 M110.369,35.702c0-1.611-0.17-3.198-0.507-4.758c-0.339-1.56-0.897-2.95-1.677-4.173c-0.78-1.221-1.782-2.209-3.004-2.964
	c-1.222-0.753-2.718-1.131-4.484-1.131c-1.821,0-3.342,0.377-4.563,1.131c-1.222,0.754-2.211,1.729-2.964,2.925
	c-0.754,1.197-1.287,2.587-1.599,4.173c-0.313,1.587-0.468,3.186-0.468,4.797c0,1.665,0.168,3.264,0.507,4.797
	c0.337,1.535,0.884,2.887,1.638,4.057c0.753,1.17,1.741,2.119,2.964,2.847c1.222,0.729,2.742,1.092,4.563,1.092
	c1.819,0,3.34-0.363,4.563-1.092c1.222-0.728,2.21-1.677,2.964-2.847s1.287-2.521,1.6-4.057
	C110.213,38.965,110.369,37.367,110.369,35.702z M162.785,29.306c0.728,2.86,0.987,5.85,0.779,8.97h-29.093
	c0.156,3.537,1.065,6.123,2.73,7.761c1.663,1.638,4.056,2.457,7.176,2.457c2.235,0,4.159-0.558,5.771-1.677
	c1.611-1.118,2.6-2.301,2.965-3.549h9.75c-1.561,4.784-3.953,8.242-7.177,10.374c-3.225,2.131-7.125,3.197-11.7,3.197
	c-3.172,0-6.032-0.52-8.579-1.56c-2.549-1.04-4.707-2.496-6.475-4.368c-1.769-1.872-3.133-4.107-4.095-6.708
	c-0.963-2.6-1.443-5.46-1.443-8.58c0-3.015,0.494-5.823,1.482-8.423c0.987-2.6,2.391-4.848,4.212-6.747
	c1.819-1.897,3.99-3.393,6.513-4.485c2.521-1.092,5.316-1.638,8.385-1.638c3.433,0,6.421,0.663,8.97,1.989
	c2.547,1.326,4.641,3.108,6.278,5.343C160.874,23.898,162.055,26.447,162.785,29.306z M152.489,31.255
	c-0.521-2.807-1.443-4.939-2.77-6.396c-1.326-1.455-3.341-2.184-6.044-2.184c-1.769,0-3.237,0.3-4.407,0.897
	c-1.17,0.598-2.105,1.339-2.808,2.223c-0.702,0.885-1.197,1.821-1.482,2.808c-0.286,0.988-0.455,1.872-0.507,2.651H152.489z
	 M186.534,14.954c-1.326,0.417-2.562,1.002-3.705,1.755c-1.145,0.754-2.158,1.665-3.042,2.73c-0.885,1.066-1.587,2.223-2.105,3.471
	h-0.156v-7.488h-10.53v40.326h11.076V37.574c0-1.768,0.182-3.444,0.546-5.031c0.363-1.585,0.975-2.963,1.833-4.133
	s1.989-2.093,3.393-2.769c1.404-0.675,3.12-1.014,5.148-1.014c0.675,0,1.377,0.039,2.106,0.117c0.728,0.078,1.352,0.169,1.871,0.273
	V14.72c-0.779-0.26-1.586-0.39-2.418-0.39C189.198,14.33,187.86,14.539,186.534,14.954z M195.699,9.182h11.075V0.056h-11.075V9.182z
	 M195.699,55.748h11.075V15.422h-11.075V55.748z M227.6,3.332h-11.076v12.09h-6.708v7.41h6.708v23.79
	c0,2.028,0.338,3.666,1.015,4.914c0.675,1.248,1.599,2.224,2.769,2.925c1.17,0.702,2.521,1.17,4.056,1.404
	c1.533,0.234,3.159,0.351,4.875,0.351c1.093,0,2.21-0.026,3.354-0.077c1.143-0.053,2.184-0.156,3.12-0.313v-8.658
	c-1.041,0.209-2.185,0.313-3.433,0.313c-1.872,0-3.12-0.313-3.743-0.937c-0.624-0.624-0.937-1.872-0.937-3.744V22.832h8.112v-7.41
	H227.6V3.332z M276.505,29.306c0.728,2.86,0.987,5.85,0.779,8.97h-29.094c0.156,3.537,1.065,6.123,2.73,7.761
	c1.663,1.638,4.056,2.457,7.176,2.457c2.235,0,4.159-0.558,5.771-1.677c1.611-1.118,2.6-2.301,2.965-3.549h9.75
	c-1.561,4.784-3.953,8.242-7.177,10.374c-3.225,2.131-7.125,3.197-11.7,3.197c-3.172,0-6.032-0.52-8.579-1.56
	c-2.549-1.04-4.707-2.496-6.475-4.368c-1.769-1.872-3.133-4.107-4.095-6.708c-0.963-2.6-1.443-5.46-1.443-8.58
	c0-3.015,0.494-5.823,1.482-8.423c0.987-2.6,2.391-4.848,4.212-6.747c1.819-1.897,3.99-3.393,6.513-4.485
	c2.521-1.092,5.316-1.638,8.385-1.638c3.433,0,6.422,0.663,8.971,1.989c2.547,1.326,4.641,3.108,6.278,5.343
	C274.594,23.898,275.776,26.447,276.505,29.306z M266.209,31.255c-0.521-2.807-1.443-4.939-2.77-6.396
	c-1.326-1.455-3.342-2.184-6.045-2.184c-1.769,0-3.237,0.3-4.407,0.897c-1.17,0.598-2.105,1.339-2.808,2.223
	c-0.702,0.885-1.197,1.821-1.482,2.808c-0.286,0.988-0.455,1.872-0.507,2.651H266.209z M280.405,43.736v12.012h12.246V43.736
	H280.405z"/>
</svg>
