<?xml version="1.0" encoding="utf-8"?>
<!-- Generator: Adobe Illustrator 17.0.0, SVG Export Plug-In . SVG Version: 6.00 Build 0)  -->
<!DOCTYPE svg PUBLIC "-//W3C//DTD SVG 1.1//EN" "http://www.w3.org/Graphics/SVG/1.1/DTD/svg11.dtd">
<svg version="1.1" id="Layer_1" xmlns="http://www.w3.org/2000/svg" xmlns:xlink="http://www.w3.org/1999/xlink" x="0px" y="0px"
	 width="24px" height="24px" viewBox="0 0 24 24" enable-background="new 0 0 24 24" xml:space="preserve">
<path fill="#FFFFFF" d="M12,0C5.373,0,0,5.372,0,12c0,5.084,3.163,9.426,7.627,11.174c-0.105-0.949-0.2-2.405,0.042-3.441
	c0.218-0.937,1.407-5.965,1.407-5.965s-0.359-0.719-0.359-1.782c0-1.668,0.967-2.914,2.171-2.914c1.023,0,1.518,0.769,1.518,1.69
	c0,1.029-0.655,2.568-0.994,3.995c-0.283,1.194,0.599,2.169,1.777,2.169c2.133,0,3.772-2.249,3.772-5.495
	c0-2.873-2.064-4.882-5.012-4.882c-3.414,0-5.418,2.561-5.418,5.207c0,1.031,0.397,2.138,0.893,2.738
	c0.098,0.119,0.112,0.224,0.083,0.345l-0.333,1.36C7.121,16.419,7,16.466,6.772,16.36c-1.499-0.698-2.436-2.889-2.436-4.649
	c0-3.785,2.75-7.262,7.929-7.262c4.163,0,7.398,2.967,7.398,6.931c0,4.136-2.607,7.464-6.227,7.464c-1.216,0-2.359-0.631-2.75-1.378
	l-0.748,2.853c-0.271,1.043-1.002,2.35-1.492,3.146C9.57,23.812,10.763,24,12,24c6.627,0,12-5.373,12-12C24,5.372,18.627,0,12,0z"/>
</svg>
